#!OML:ASF F:\VICON\USERDATA\INSTALL\rory3\rory3.ASF
:FULLY-SPECIFIED
:DEGREES
92
root 1.11099 17.5274 -17.3934 7.99612 -1.57126 -0.224668
lowerback 14.2469 -0.130016 -0.74379
upperback 0.938658 -0.147941 1.95418
thorax -6.99625 -0.0179939 2.5271
lowerneck -19.2856 -4.71892 -9.59979
upperneck 11.7732 -5.1088 7.82329
head 7.20962 -2.18725 3.52268
rclavicle -7.05686e-015 -1.27222e-014
rhumerus -30.0028 0.468839 -85.3544
rradius 47.1935
rwrist 2.29802
rhand -8.40187 8.18993
rfingers 7.12502
rthumb 17.5221 -21.0404
lclavicle -7.05686e-015 -1.27222e-014
lhumerus -28.7471 0.595287 87.5404
lradius 41.6922
lwrist -2.99932
lhand -15.5711 31.0767
lfingers 7.12502
lthumb 10.6139 60.7886
rfemur -19.5542 3.36875 19.1191
rtibia 33.101
rfoot -15.201 -9.58131
rtoes 3.91479
lfemur -20.3623 0.0656195 -19.0249
ltibia 32.741
lfoot -16.2754 4.73286
ltoes -0.627766
93
root 1.10961 17.4775 -17.4339 8.09256 -1.40261 -0.444425
lowerback 14.8795 -0.133603 -0.52162
upperback 1.09748 -0.111728 2.01015
thorax -7.18104 -0.00573532 2.4595
lowerneck -19.6422 -4.74765 -9.54038
upperneck 11.484 -5.12857 7.90077
head 7.17664 -2.17884 3.53163
rclavicle -7.95139e-015 -3.97569e-016
rhumerus -29.8666 0.723627 -85.4099
rradius 48.3119
rwrist 2.31436
rhand -8.41707 8.30855
rfingers 7.12502
rthumb 17.5075 -20.9231
lclavicle -7.95139e-015 -3.97569e-016
lhumerus -28.5885 0.217973 87.5719
lradius 42.6588
lwrist -2.84172
lhand -18.0215 27.4396
lfingers 7.12502
lthumb 8.24962 57.2586
rfemur -20.5006 3.0011 19.4095
rtibia 34.4326
rfoot -15.612 -9.55256
rtoes 3.10613
lfemur -21.4673 0.426189 -18.7545
ltibia 34.3685
lfoot -16.913 4.2626
ltoes -1.29112
94
root 1.10546 17.4225 -17.4703 8.21487 -1.19357 -0.563424
lowerback 15.3336 -0.253894 -0.47819
upperback 1.24604 -0.254491 2.11752
thorax -7.26744 -0.0747578 2.58417
lowerneck -19.6633 -4.61181 -9.6728
upperneck 10.9893 -4.90395 8.03997
head 7.00545 -2.06372 3.62502
rclavicle -5.76476e-015 3.18055e-015
rhumerus -29.6719 1.44532 -85.5073
rradius 49.4284
rwrist 2.30478
rhand -8.42357 8.12201
rfingers 7.12502
rthumb 17.5012 -21.1102
lclavicle -5.76476e-015 3.18055e-015
lhumerus -28.6504 0.250371 87.5474
lradius 43.843
lwrist -2.8159
lhand -19.2016 25.604
lfingers 7.12502
lthumb 7.11051 55.4646
rfemur -21.4864 2.56644 19.5868
rtibia 35.8199
rfoot -16.2088 -9.32995
rtoes 3.53242
lfemur -22.5691 0.619327 -18.5648
ltibia 36.053
lfoot -17.6345 3.79486
ltoes -0.715493
95
root 1.104 17.3588 -17.507 8.3156 -1.09112 -0.761522
lowerback 15.9149 -0.299022 -0.288136
upperback 1.32879 -0.271949 2.18949
thorax -7.50107 -0.0862707 2.56522
lowerneck -19.7538 -4.57827 -9.75679
upperneck 10.6352 -4.82218 8.12167
head 6.90184 -2.01845 3.67329
rclavicle -7.35503e-015 7.55382e-015
rhumerus -29.7959 2.17876 -85.5651
rradius 50.8715
rwrist 2.29079
rhand -9.3371 9.35897
rfingers 7.12502
rthumb 16.6219 -19.9493
lclavicle -7.35503e-015 7.55382e-015
lhumerus -28.9983 -0.111641 87.5593
lradius 45.2057
lwrist -2.49362
lhand -20.1491 23.7904
lfingers 7.12502
lthumb 6.19584 53.6798
rfemur -22.4984 2.18427 19.8286
rtibia 37.2865
rfoot -16.8276 -9.08036
rtoes 3.66835
lfemur -23.7028 0.83432 -18.3108
ltibia 37.7269
lfoot -18.275 3.38327
ltoes 0.336488
96
root 1.10019 17.2986 -17.5445 8.40781 -1.12465 -0.908453
lowerback 16.5584 -0.171644 -0.100104
upperback 1.48217 -0.0694878 2.14681
thorax -7.70193 0.0055768 2.37446
lowerneck -20.287 -4.70918 -9.64938
upperneck 10.4777 -4.97921 8.17884
head 6.95119 -2.07219 3.65028
rclavicle -2.38542e-015 -2.10712e-014
rhumerus -29.964 2.24185 -85.5745
rradius 52.4852
rwrist 2.47645
rhand -11.2701 12.471
rfingers 7.12502
rthumb 14.7603 -16.9835
lclavicle -2.38542e-015 -2.10712e-014
lhumerus -29.1373 -1.05844 87.6358
lradius 46.63
lwrist -2.03279
lhand -20.5873 23.1247
lfingers 7.12502
lthumb 5.7728 53.026
rfemur -23.5812 1.95227 20.0152
rtibia 38.8467
rfoot -17.4309 -8.90684
rtoes 3.46444
lfemur -24.8409 1.1939 -18.1528
ltibia 39.3527
lfoot -18.8769 3.19779
ltoes 0.009577
97
root 1.09321 17.236 -17.5838 8.58818 -1.19499 -0.967274
lowerback 17.028 -0.0598767 -0.10698
upperback 1.73137 0.0760985 2.13483
thorax -7.69808 0.0742799 2.3346
lowerneck -20.9084 -4.7746 -9.55444
upperneck 10.1274 -5.02773 8.24379
head 6.94174 -2.07172 3.64388
rclavicle -7.7526e-015 -1.03368e-014
rhumerus -29.648 2.35117 -85.5808
rradius 53.7042
rwrist 2.66146
rhand -12.7268 14.9106
rfingers 7.12502
rthumb 13.3566 -14.6413
lclavicle -7.7526e-015 -1.03368e-014
lhumerus -28.8583 -1.68148 87.6576
lradius 47.8995
lwrist -1.92732
lhand -20.3263 23.3181
lfingers 7.12502
lthumb 6.02484 53.2125
rfemur -24.8309 1.7651 20.1205
rtibia 40.4573
rfoot -17.9591 -8.73775
rtoes 3.64609
lfemur -26.097 1.59333 -18.0965
ltibia 40.9455
lfoot -19.3524 3.138
ltoes -1.18647
98
root 1.08761 17.1596 -17.6303 8.88517 -1.10152 -0.999533
lowerback 17.5765 -0.0917397 -0.178251
upperback 1.787 0.0303096 2.19097
thorax -7.9384 0.057034 2.45279
lowerneck -20.926 -4.72855 -9.47801
upperneck 9.48268 -4.944 8.19749
head 6.72334 -2.03229 3.62328
rclavicle 2.5842e-015 3.97569e-016
rhumerus -29.483 2.89034 -85.6048
rradius 54.8984
rwrist 2.67206
rhand -13.3687 16.0463
rfingers 7.12502
rthumb 12.7378 -13.5451
lclavicle 2.5842e-015 3.97569e-016
lhumerus -29.0167 -1.94693 87.6471
lradius 49.4161
lwrist -1.75018
lhand -20.4868 21.7677
lfingers 7.12502
lthumb 5.86981 51.6664
rfemur -26.2304 1.36366 20.234
rtibia 42.1028
rfoot -18.4469 -8.55968
rtoes 3.48314
lfemur -27.575 1.8213 -18.0395
ltibia 42.5204
lfoot -19.7321 2.96842
ltoes -1.76691
99
root 1.08345 17.0798 -17.6777 9.14002 -0.919475 -1.03899
lowerback 18.2797 -0.158393 -0.19043
upperback 1.74207 -0.0476164 2.23183
thorax -8.37121 0.0248926 2.5338
lowerneck -20.6851 -4.67033 -9.39516
upperneck 8.96762 -4.86945 8.10131
head 6.50595 -2.00705 3.58669
rclavicle 8.94531e-015 -1.74931e-014
rhumerus -29.838 3.48786 -85.6386
rradius 56.6902
rwrist 2.60339
rhand -13.6221 16.2894
rfingers 7.12502
rthumb 12.4935 -13.3171
lclavicle 8.94531e-015 -1.74931e-014
lhumerus -29.4095 -2.26306 87.623
lradius 51.0118
lwrist -1.36925
lhand -20.9043 20.5328
lfingers 7.12502
lthumb 5.46678 50.4423
rfemur -27.5358 0.859079 20.3615
rtibia 43.7421
rfoot -18.9751 -8.35312
rtoes 3.64021
lfemur -28.9957 1.95958 -17.9755
ltibia 44.12
lfoot -20.225 2.66127
ltoes -1.43794
